<?xml version="1.0" encoding="utf-8"?>
<!-- Generator: Adobe Illustrator 16.0.4, SVG Export Plug-In . SVG Version: 6.00 Build 0)  -->
<!DOCTYPE svg PUBLIC "-//W3C//DTD SVG 1.1//EN" "http://www.w3.org/Graphics/SVG/1.1/DTD/svg11.dtd">
<svg version="1.1" id="Layer_1" xmlns="http://www.w3.org/2000/svg" xmlns:xlink="http://www.w3.org/1999/xlink" x="0px" y="0px"
	 width="76.458px" height="98.834px" viewBox="0 0 76.458 98.834" enable-background="new 0 0 76.458 98.834" xml:space="preserve">
<path fill="#95A63A" d="M4.921,51.053c-0.773,0-1.553-0.185-2.282-0.565c-2.408-1.262-3.337-4.234-2.075-6.644l12.891-24.599
	c0.799-1.525,2.339-2.521,4.058-2.626c1.718-0.102,3.368,0.692,4.351,2.112l5.062,7.322l9.02-22.933
	c0.684-1.73,2.277-2.931,4.128-3.104c1.859-0.15,3.639,0.717,4.625,2.292l10.392,16.594l7.389-7.688
	c1.882-1.959,4.998-2.022,6.959-0.139c1.959,1.888,2.021,5.001,0.138,6.961L57.812,30.271c-1.05,1.094-2.554,1.644-4.055,1.486
	c-1.506-0.157-2.859-0.998-3.668-2.285l-8.557-13.667l-8.827,22.441c-0.664,1.692-2.207,2.878-4.016,3.089
	c-1.801,0.209-3.58-0.597-4.612-2.091l-5.682-8.218L9.28,48.414C8.402,50.093,6.69,51.053,4.921,51.053L4.921,51.053z"/>
<g>
	<path fill="#6A7072" d="M52.472,63.793c0,7.276-5.897,13.176-13.174,13.176c-7.279,0-13.175-5.899-13.175-13.176
		c0-7.278,5.896-13.18,13.175-13.18C46.574,50.614,52.472,56.515,52.472,63.793z"/>
	<path fill="#6A7072" d="M37.238,98.834c-19.36,0-35.108-15.748-35.108-35.105c0-2.718,2.204-4.921,4.922-4.921
		c2.716,0,4.92,2.203,4.92,4.921c0,13.931,11.334,25.263,25.267,25.263c13.722,0,23.079-5.76,27.805-17.112
		c3.58-8.605,0.411-22.396-2.217-27.07c-1.335-2.368-0.496-5.37,1.87-6.702c2.371-1.336,5.373-0.496,6.706,1.872
		c4.134,7.338,7.482,24.267,2.726,35.685C67.908,90.606,54.808,98.834,37.238,98.834L37.238,98.834z"/>
</g>
</svg>
